<svg width="138" height="138" viewBox="0 0 138 138" fill="none" xmlns="http://www.w3.org/2000/svg">
<g filter="url(#filter0_i_1736_4914)">
<circle cx="69" cy="69" r="69" fill="url(#paint0_linear_1736_4914)"/>
</g>
<path d="M68.9896 55.1073C61.3397 55.1073 55.0968 61.3502 55.0968 69C55.0968 76.6498 61.3397 82.8927 68.9896 82.8927C76.6394 82.8927 82.8823 76.6498 82.8823 69C82.8823 61.3502 76.6394 55.1073 68.9896 55.1073ZM110.657 69C110.657 63.247 110.709 57.5461 110.386 51.8035C110.063 45.1333 108.542 39.2135 103.664 34.336C98.776 29.448 92.8667 27.9368 86.1965 27.6137C80.4435 27.2906 74.7426 27.3427 69 27.3427C63.247 27.3427 57.546 27.2906 51.8035 27.6137C45.1333 27.9368 39.2135 29.4584 34.336 34.336C29.448 39.224 27.9368 45.1333 27.6137 51.8035C27.2906 57.5565 27.3427 63.2574 27.3427 69C27.3427 74.7426 27.2906 80.4539 27.6137 86.1965C27.9368 92.8667 29.4584 98.7865 34.336 103.664C39.2239 108.552 45.1333 110.063 51.8035 110.386C57.5565 110.709 63.2574 110.657 69 110.657C74.753 110.657 80.4539 110.709 86.1965 110.386C92.8667 110.063 98.7864 108.542 103.664 103.664C108.552 98.776 110.063 92.8667 110.386 86.1965C110.72 80.4539 110.657 74.753 110.657 69ZM68.9896 90.3758C57.1604 90.3758 47.6138 80.8291 47.6138 69C47.6138 57.1709 57.1604 47.6242 68.9896 47.6242C80.8187 47.6242 90.3654 57.1709 90.3654 69C90.3654 80.8291 80.8187 90.3758 68.9896 90.3758ZM91.2408 51.7409C88.479 51.7409 86.2486 49.5106 86.2486 46.7487C86.2486 43.9869 88.479 41.7565 91.2408 41.7565C94.0027 41.7565 96.233 43.9869 96.233 46.7487C96.2338 47.4046 96.1053 48.0541 95.8547 48.6601C95.6041 49.2662 95.2364 49.8169 94.7727 50.2806C94.3089 50.7443 93.7583 51.112 93.1522 51.3626C92.5462 51.6132 91.8966 51.7418 91.2408 51.7409Z" fill="#F7FCFF"/>
<defs>
<filter id="filter0_i_1736_4914" x="-4" y="-7" width="142" height="145" filterUnits="userSpaceOnUse" color-interpolation-filters="sRGB">
<feFlood flood-opacity="0" result="BackgroundImageFix"/>
<feBlend mode="normal" in="SourceGraphic" in2="BackgroundImageFix" result="shape"/>
<feColorMatrix in="SourceAlpha" type="matrix" values="0 0 0 0 0 0 0 0 0 0 0 0 0 0 0 0 0 0 127 0" result="hardAlpha"/>
<feOffset dx="-4" dy="-7"/>
<feGaussianBlur stdDeviation="5.20755"/>
<feComposite in2="hardAlpha" operator="arithmetic" k2="-1" k3="1"/>
<feColorMatrix type="matrix" values="0 0 0 0 0 0 0 0 0 0 0 0 0 0 0 0 0 0 0.25 0"/>
<feBlend mode="normal" in2="shape" result="effect1_innerShadow_1736_4914"/>
</filter>
<linearGradient id="paint0_linear_1736_4914" x1="141.715" y1="-12.6091" x2="-65.277" y2="194.504" gradientUnits="userSpaceOnUse">
<stop stop-color="#237DBD"/>
<stop offset="0.466442" stop-color="#E73298"/>
<stop offset="0.716275" stop-color="#F8610D"/>
<stop offset="1" stop-color="#F5BB37"/>
</linearGradient>
</defs>
</svg>
