<svg width="138" height="138" viewBox="0 0 138 138" fill="none" xmlns="http://www.w3.org/2000/svg">
<g filter="url(#filter0_i_926_19771)">
<circle cx="69" cy="69" r="69" fill="#428ABE"/>
</g>
<g clip-path="url(#clip0_926_19771)">
<path d="M110.32 68.66C110.32 79.7089 105.931 90.3053 98.1181 98.1181C90.3053 105.931 79.7089 110.32 68.66 110.32C57.6111 110.32 47.0147 105.931 39.2019 98.1181C31.3892 90.3053 27 79.7089 27 68.66C27 57.6111 31.3892 47.0147 39.2019 39.2019C47.0147 31.3892 57.6111 27 68.66 27C79.7089 27 90.3053 31.3892 98.1181 39.2019C105.931 47.0147 110.32 57.6111 110.32 68.66ZM70.1546 57.7555C66.1031 59.4427 58.0002 62.9317 45.8564 68.2226C43.8879 69.0037 42.8516 69.7744 42.7579 70.5243C42.6017 71.7897 44.19 72.2896 46.3511 72.9718L47.2624 73.2582C49.387 73.9508 52.2512 74.758 53.7353 74.7892C55.0893 74.8205 56.5942 74.2685 58.2554 73.1228C69.6026 65.4626 75.461 61.5934 75.8255 61.5101C76.0859 61.4476 76.4504 61.3747 76.69 61.5934C76.9347 61.8069 76.9087 62.2183 76.8826 62.3277C76.7264 62.9994 70.493 68.7902 67.2696 71.7897C66.2645 72.7271 65.5511 73.3884 65.4053 73.5394C65.0842 73.8676 64.7579 74.1905 64.4263 74.508C62.4475 76.414 60.9685 77.8408 64.5044 80.1738C66.2073 81.2986 67.5716 82.2203 68.9308 83.1473C70.4097 84.1575 71.8886 85.1626 73.805 86.4228C74.2893 86.7352 74.758 87.0737 75.211 87.3966C76.9347 88.6256 78.4918 89.7295 80.4029 89.5525C81.5173 89.4483 82.6682 88.4068 83.2514 85.2823C84.6314 77.9033 87.3445 61.9215 87.9694 55.334C88.0075 54.7864 87.9848 54.2362 87.9017 53.6936C87.8527 53.2558 87.6408 52.8524 87.3081 52.5636C86.8342 52.2365 86.2694 52.0671 85.6937 52.0793C84.1315 52.1054 81.7204 52.9438 70.1546 57.7555Z" fill="#F7FCFF"/>
</g>
<defs>
<filter id="filter0_i_926_19771" x="-4" y="-7" width="142" height="145" filterUnits="userSpaceOnUse" color-interpolation-filters="sRGB">
<feFlood flood-opacity="0" result="BackgroundImageFix"/>
<feBlend mode="normal" in="SourceGraphic" in2="BackgroundImageFix" result="shape"/>
<feColorMatrix in="SourceAlpha" type="matrix" values="0 0 0 0 0 0 0 0 0 0 0 0 0 0 0 0 0 0 127 0" result="hardAlpha"/>
<feOffset dx="-4" dy="-7"/>
<feGaussianBlur stdDeviation="5.20755"/>
<feComposite in2="hardAlpha" operator="arithmetic" k2="-1" k3="1"/>
<feColorMatrix type="matrix" values="0 0 0 0 0 0 0 0 0 0 0 0 0 0 0 0 0 0 0.25 0"/>
<feBlend mode="normal" in2="shape" result="effect1_innerShadow_926_19771"/>
</filter>
<clipPath id="clip0_926_19771">
<rect width="83.32" height="83.32" fill="white" transform="translate(27 27)"/>
</clipPath>
</defs>
</svg>
